<?xml version="1.0" encoding="UTF-8" standalone="no"?><svg xmlns="http://www.w3.org/2000/svg" xmlns:xlink="http://www.w3.org/1999/xlink" contentScriptType="application/ecmascript" contentStyleType="text/css" height="403px" preserveAspectRatio="none" style="width:797px;height:403px;" version="1.1" viewBox="0 0 797 403" width="797px" zoomAndPan="magnify"><defs><filter height="300%" id="fjhhvffdbm1t1" width="300%" x="-1" y="-1"><feGaussianBlur result="blurOut" stdDeviation="2.0"/><feColorMatrix in="blurOut" result="blurOut2" type="matrix" values="0 0 0 0 0 0 0 0 0 0 0 0 0 0 0 0 0 0 .4 0"/><feOffset dx="4.0" dy="4.0" in="blurOut2" result="blurOut3"/><feBlend in="SourceGraphic" in2="blurOut3" mode="normal"/></filter></defs><g><!--class BeanPostProcessor--><rect fill="#FEFECE" filter="url(#fjhhvffdbm1t1)" height="78.0459" id="BeanPostProcessor" style="stroke: #A80036; stroke-width: 1.5;" width="174" x="307.5" y="8"/><ellipse cx="337.8" cy="24" fill="#B4A7E5" rx="11" ry="11" style="stroke: #A80036; stroke-width: 1.0;"/><path d="M334.3938,18.2813 L334.3938,17.875 L340.7063,17.875 L340.7063,18.2813 L338.175,18.2813 Q338.175,18.2813 338.3234,18.4141 Q338.4719,18.5469 338.4719,18.8125 L338.4719,28.2969 Q338.4719,28.5625 338.6906,28.6953 Q338.9094,28.8281 338.9094,28.8281 L340.7063,28.8281 L340.7063,29.2344 L334.3938,29.2344 L334.3938,28.8281 L335.925,28.8281 Q336.2531,28.8281 336.3859,28.6953 Q336.5188,28.5625 336.5188,28.2969 L336.5188,18.8125 Q336.5188,18.5469 336.3859,18.4141 Q336.2531,18.2813 335.925,18.2813 L334.3938,18.2813 Z "/><text fill="#000000" font-family="sans-serif" font-size="12" font-style="italic" lengthAdjust="spacingAndGlyphs" textLength="108" x="355.2" y="29.5576">BeanPostProcessor</text><line style="stroke: #A80036; stroke-width: 1.5;" x1="308.5" x2="480.5" y1="40" y2="40"/><ellipse cx="318.5" cy="53.0115" fill="none" rx="3" ry="3" style="stroke: #038048; stroke-width: 1.0;"/><text fill="#000000" font-family="sans-serif" font-size="11" lengthAdjust="spacingAndGlyphs" textLength="148" x="327.5" y="56.606">postProcessBeforeInitialization</text><ellipse cx="318.5" cy="68.0344" fill="none" rx="3" ry="3" style="stroke: #038048; stroke-width: 1.0;"/><text fill="#000000" font-family="sans-serif" font-size="11" lengthAdjust="spacingAndGlyphs" textLength="140" x="327.5" y="71.6289">postProcessAfterInitialization</text><line style="stroke: #A80036; stroke-width: 1.5;" x1="308.5" x2="480.5" y1="78.0459" y2="78.0459"/><!--class MergedBeanDefinitionPostProcessor--><rect fill="#FEFECE" filter="url(#fjhhvffdbm1t1)" height="63.0229" id="MergedBeanDefinitionPostProcessor" style="stroke: #A80036; stroke-width: 1.5;" width="233" x="6" y="161"/><ellipse cx="21" cy="177" fill="#B4A7E5" rx="11" ry="11" style="stroke: #A80036; stroke-width: 1.0;"/><path d="M17.5938,171.2813 L17.5938,170.875 L23.9063,170.875 L23.9063,171.2813 L21.375,171.2813 Q21.375,171.2813 21.5234,171.4141 Q21.6719,171.5469 21.6719,171.8125 L21.6719,181.2969 Q21.6719,181.5625 21.8906,181.6953 Q22.1094,181.8281 22.1094,181.8281 L23.9063,181.8281 L23.9063,182.2344 L17.5938,182.2344 L17.5938,181.8281 L19.125,181.8281 Q19.4531,181.8281 19.5859,181.6953 Q19.7188,181.5625 19.7188,181.2969 L19.7188,171.8125 Q19.7188,171.5469 19.5859,171.4141 Q19.4531,171.2813 19.125,171.2813 L17.5938,171.2813 Z "/><text fill="#000000" font-family="sans-serif" font-size="12" font-style="italic" lengthAdjust="spacingAndGlyphs" textLength="201" x="35" y="182.5576">MergedBeanDefinitionPostProcessor</text><line style="stroke: #A80036; stroke-width: 1.5;" x1="7" x2="238" y1="193" y2="193"/><ellipse cx="17" cy="206.0115" fill="none" rx="3" ry="3" style="stroke: #038048; stroke-width: 1.0;"/><text fill="#000000" font-family="sans-serif" font-size="11" lengthAdjust="spacingAndGlyphs" textLength="166" x="26" y="209.606">postProcessMergedBeanDefinition</text><line style="stroke: #A80036; stroke-width: 1.5;" x1="7" x2="238" y1="216.0229" y2="216.0229"/><!--class InstantiationAwareBeanPostProcessor--><rect fill="#FEFECE" filter="url(#fjhhvffdbm1t1)" height="93.0688" id="InstantiationAwareBeanPostProcessor" style="stroke: #A80036; stroke-width: 1.5;" width="241" x="274" y="146"/><ellipse cx="289" cy="162" fill="#B4A7E5" rx="11" ry="11" style="stroke: #A80036; stroke-width: 1.0;"/><path d="M285.5938,156.2813 L285.5938,155.875 L291.9063,155.875 L291.9063,156.2813 L289.375,156.2813 Q289.375,156.2813 289.5234,156.4141 Q289.6719,156.5469 289.6719,156.8125 L289.6719,166.2969 Q289.6719,166.5625 289.8906,166.6953 Q290.1094,166.8281 290.1094,166.8281 L291.9063,166.8281 L291.9063,167.2344 L285.5938,167.2344 L285.5938,166.8281 L287.125,166.8281 Q287.4531,166.8281 287.5859,166.6953 Q287.7188,166.5625 287.7188,166.2969 L287.7188,156.8125 Q287.7188,156.5469 287.5859,156.4141 Q287.4531,156.2813 287.125,156.2813 L285.5938,156.2813 Z "/><text fill="#000000" font-family="sans-serif" font-size="12" font-style="italic" lengthAdjust="spacingAndGlyphs" textLength="209" x="303" y="167.5576">InstantiationAwareBeanPostProcessor</text><line style="stroke: #A80036; stroke-width: 1.5;" x1="275" x2="514" y1="178" y2="178"/><ellipse cx="285" cy="191.0115" fill="none" rx="3" ry="3" style="stroke: #038048; stroke-width: 1.0;"/><text fill="#000000" font-family="sans-serif" font-size="11" lengthAdjust="spacingAndGlyphs" textLength="151" x="294" y="194.606">postProcessBeforeInstantiation</text><ellipse cx="285" cy="206.0344" fill="none" rx="3" ry="3" style="stroke: #038048; stroke-width: 1.0;"/><text fill="#000000" font-family="sans-serif" font-size="11" lengthAdjust="spacingAndGlyphs" textLength="143" x="294" y="209.6289">postProcessAfterInstantiation</text><ellipse cx="285" cy="221.0574" fill="none" rx="3" ry="3" style="stroke: #038048; stroke-width: 1.0;"/><text fill="#000000" font-family="sans-serif" font-size="11" lengthAdjust="spacingAndGlyphs" textLength="136" x="294" y="224.6519">postProcessPropertyValues</text><line style="stroke: #A80036; stroke-width: 1.5;" x1="275" x2="514" y1="231.0688" y2="231.0688"/><!--class DestructionAwareBeanPostProcessor--><rect fill="#FEFECE" filter="url(#fjhhvffdbm1t1)" height="78.0459" id="DestructionAwareBeanPostProcessor" style="stroke: #A80036; stroke-width: 1.5;" width="236" x="550.5" y="153.5"/><ellipse cx="565.5" cy="169.5" fill="#B4A7E5" rx="11" ry="11" style="stroke: #A80036; stroke-width: 1.0;"/><path d="M562.0938,163.7813 L562.0938,163.375 L568.4063,163.375 L568.4063,163.7813 L565.875,163.7813 Q565.875,163.7813 566.0234,163.9141 Q566.1719,164.0469 566.1719,164.3125 L566.1719,173.7969 Q566.1719,174.0625 566.3906,174.1953 Q566.6094,174.3281 566.6094,174.3281 L568.4063,174.3281 L568.4063,174.7344 L562.0938,174.7344 L562.0938,174.3281 L563.625,174.3281 Q563.9531,174.3281 564.0859,174.1953 Q564.2188,174.0625 564.2188,173.7969 L564.2188,164.3125 Q564.2188,164.0469 564.0859,163.9141 Q563.9531,163.7813 563.625,163.7813 L562.0938,163.7813 Z "/><text fill="#000000" font-family="sans-serif" font-size="12" font-style="italic" lengthAdjust="spacingAndGlyphs" textLength="204" x="579.5" y="175.0576">DestructionAwareBeanPostProcessor</text><line style="stroke: #A80036; stroke-width: 1.5;" x1="551.5" x2="785.5" y1="185.5" y2="185.5"/><ellipse cx="561.5" cy="198.5115" fill="none" rx="3" ry="3" style="stroke: #038048; stroke-width: 1.0;"/><text fill="#000000" font-family="sans-serif" font-size="11" lengthAdjust="spacingAndGlyphs" textLength="149" x="570.5" y="202.106">postProcessBeforeDestruction</text><ellipse cx="561.5" cy="213.5344" fill="none" rx="3" ry="3" style="stroke: #038048; stroke-width: 1.0;"/><text fill="#000000" font-family="sans-serif" font-size="11" lengthAdjust="spacingAndGlyphs" textLength="95" x="570.5" y="217.1289">requiresDestruction</text><line style="stroke: #A80036; stroke-width: 1.5;" x1="551.5" x2="785.5" y1="223.5459" y2="223.5459"/><!--class SmartInstantiationAwareBeanPostProcessor--><rect fill="#FEFECE" filter="url(#fjhhvffdbm1t1)" height="93.0688" id="SmartInstantiationAwareBeanPostProcessor" style="stroke: #A80036; stroke-width: 1.5;" width="274" x="257.5" y="299"/><ellipse cx="272.5" cy="315" fill="#B4A7E5" rx="11" ry="11" style="stroke: #A80036; stroke-width: 1.0;"/><path d="M269.0938,309.2813 L269.0938,308.875 L275.4063,308.875 L275.4063,309.2813 L272.875,309.2813 Q272.875,309.2813 273.0234,309.4141 Q273.1719,309.5469 273.1719,309.8125 L273.1719,319.2969 Q273.1719,319.5625 273.3906,319.6953 Q273.6094,319.8281 273.6094,319.8281 L275.4063,319.8281 L275.4063,320.2344 L269.0938,320.2344 L269.0938,319.8281 L270.625,319.8281 Q270.9531,319.8281 271.0859,319.6953 Q271.2188,319.5625 271.2188,319.2969 L271.2188,309.8125 Q271.2188,309.5469 271.0859,309.4141 Q270.9531,309.2813 270.625,309.2813 L269.0938,309.2813 Z "/><text fill="#000000" font-family="sans-serif" font-size="12" font-style="italic" lengthAdjust="spacingAndGlyphs" textLength="242" x="286.5" y="320.5576">SmartInstantiationAwareBeanPostProcessor</text><line style="stroke: #A80036; stroke-width: 1.5;" x1="258.5" x2="530.5" y1="331" y2="331"/><ellipse cx="268.5" cy="344.0115" fill="none" rx="3" ry="3" style="stroke: #038048; stroke-width: 1.0;"/><text fill="#000000" font-family="sans-serif" font-size="11" lengthAdjust="spacingAndGlyphs" textLength="82" x="277.5" y="347.606">predictBeanType</text><ellipse cx="268.5" cy="359.0344" fill="none" rx="3" ry="3" style="stroke: #038048; stroke-width: 1.0;"/><text fill="#000000" font-family="sans-serif" font-size="11" lengthAdjust="spacingAndGlyphs" textLength="158" x="277.5" y="362.6289">determineCandidateConstructors</text><ellipse cx="268.5" cy="374.0574" fill="none" rx="3" ry="3" style="stroke: #038048; stroke-width: 1.0;"/><text fill="#000000" font-family="sans-serif" font-size="11" lengthAdjust="spacingAndGlyphs" textLength="115" x="277.5" y="377.6519">getEarlyBeanReference</text><line style="stroke: #A80036; stroke-width: 1.5;" x1="258.5" x2="530.5" y1="384.0688" y2="384.0688"/><!--link BeanPostProcessor to MergedBeanDefinitionPostProcessor--><path d="M317.864,88.431 C274.23,111.451 220.453,139.822 180.374,160.967 " fill="none" id="BeanPostProcessor-MergedBeanDefinitionPostProcessor" style="stroke: #A80036; stroke-width: 1.0;"/><polygon fill="#A80036" points="322.323,86.079,312.4963,86.7398,317.9005,88.4117,316.2286,93.8158,322.323,86.079" style="stroke: #A80036; stroke-width: 1.0;"/><!--link BeanPostProcessor to InstantiationAwareBeanPostProcessor--><path d="M394.5,91.334 C394.5,108.556 394.5,128.384 394.5,145.83 " fill="none" id="BeanPostProcessor-InstantiationAwareBeanPostProcessor" style="stroke: #A80036; stroke-width: 1.0;"/><polygon fill="#A80036" points="394.5,86.079,390.5,95.079,394.5,91.079,398.5,95.079,394.5,86.079" style="stroke: #A80036; stroke-width: 1.0;"/><!--link BeanPostProcessor to DestructionAwareBeanPostProcessor--><path d="M471.913,88.543 C510.828,108.923 557.709,133.476 595.928,153.493 " fill="none" id="BeanPostProcessor-DestructionAwareBeanPostProcessor" style="stroke: #A80036; stroke-width: 1.0;"/><polygon fill="#A80036" points="467.208,86.079,473.3251,93.7979,471.6374,88.3987,477.0366,86.7109,467.208,86.079" style="stroke: #A80036; stroke-width: 1.0;"/><!--link InstantiationAwareBeanPostProcessor to SmartInstantiationAwareBeanPostProcessor--><path d="M394.5,244.61 C394.5,262.217 394.5,281.806 394.5,298.9406 " fill="none" id="InstantiationAwareBeanPostProcessor-SmartInstantiationAwareBeanPostProcessor" style="stroke: #A80036; stroke-width: 1.0;"/><polygon fill="#A80036" points="394.5,239.215,390.5,248.215,394.5,244.215,398.5,248.215,394.5,239.215" style="stroke: #A80036; stroke-width: 1.0;"/><!--
@startuml BeanPostFactory

interface BeanPostProcessor {
    + postProcessBeforeInitialization
    + postProcessAfterInitialization
}

interface MergedBeanDefinitionPostProcessor {
    + postProcessMergedBeanDefinition
}

interface InstantiationAwareBeanPostProcessor {
    + postProcessBeforeInstantiation
    + postProcessAfterInstantiation
    + postProcessPropertyValues
}

interface DestructionAwareBeanPostProcessor {
    + postProcessBeforeDestruction
    + requiresDestruction
}

interface SmartInstantiationAwareBeanPostProcessor {
    + predictBeanType
    + determineCandidateConstructors
    + getEarlyBeanReference
}

BeanPostProcessor <- - MergedBeanDefinitionPostProcessor
BeanPostProcessor <- - InstantiationAwareBeanPostProcessor
BeanPostProcessor <- - DestructionAwareBeanPostProcessor

InstantiationAwareBeanPostProcessor <- - SmartInstantiationAwareBeanPostProcessor
@enduml

PlantUML version 1.2018.03(Fri Apr 06 00:59:15 CST 2018)
(GPL source distribution)
Java Runtime: Java(TM) SE Runtime Environment
JVM: Java HotSpot(TM) 64-Bit Server VM
Java Version: 10+46
Operating System: Windows 10
OS Version: 10.0
Default Encoding: GBK
Language: zh
Country: CN
--></g></svg>